<?xml version="1.0" encoding="UTF-8"?>
<svg id="Layer_1" data-name="Layer 1" xmlns="http://www.w3.org/2000/svg" viewBox="0 0 376.7 489.3">
  <defs>
    <style>
      .cls-1 {
        fill: #fff;
        stroke-width: 0px;
      }
    </style>
  </defs>
  <g>
    <path class="cls-1" d="m69.17,41.88c-15.71-2.62-33.48-4.76-46.11,4.95-6.99,5.37-11.18,13.61-14.01,21.96-7.76,22.85-6.85,47.6-5.86,71.7,4.03,97.86,8.05,195.72,12.08,293.59.64,15.46,2.16,32.82,14.02,42.76,8.4,7.04,20.04,8.51,30.98,9.2,17.66,1.11,35.41.93,53.04-.54,11.85-.99,24.47-2.91,33.29-10.89,7.79-7.05,11.27-17.7,12.94-28.07,3.22-20.06.82-40.55-1.57-60.73-4.34-36.51-8.68-73.02-13.02-109.53,18.58-2.7,37.16-5.4,55.73-8.1,5.91-.86,12.09-1.83,16.86-5.41,6.07-4.56,8.58-12.37,10.38-19.74,2.76-11.35,4.41-24.09-1.66-34.06-6.81-11.19-21.04-15.18-34.05-16.67-15.34-1.76-30.92-1.37-46.15,1.15-2.89.48-6.13.96-8.51-.74-1.83-1.3-2.67-3.55-3.36-5.68-5.87-18.16-7.99-37.53-6.2-56.53.23-2.44.59-5.03,2.19-6.88,1.98-2.3,5.27-2.83,8.29-3.21,34.26-4.3,68.69-7.27,103.18-8.91,28.01-1.33,56.79-1.93,82.73-12.58s48.83-34.07,49.67-62.1c.17-5.8-.64-11.76-3.41-16.85-6.75-12.4-22.67-16.18-36.76-16.97-19.51-1.1-39.05,1.05-58.47,3.2-72.32,7.99-144.65,15.99-216.95,24.15-11.11,1.25-23.36,3.11-30.5,11.71"/>
    <path class="cls-1" d="m69.84,39.47c-11.41-1.89-23.38-3.64-34.81-.91s-20.23,10.94-25.25,21.7C-1.51,84.46-.44,112.67.62,138.7c2.37,58.35,4.8,116.7,7.2,175.05,1.21,29.36,2.42,58.72,3.62,88.08.56,13.59.73,27.26,1.82,40.81.85,10.54,2.71,21.76,9.16,30.46,6.87,9.27,17.54,13.1,28.61,14.57,13.65,1.81,27.72,1.81,41.46,1.45,12.84-.33,26.43-.55,38.9-3.94,11.18-3.04,20.32-9.76,25.35-20.35,5.52-11.63,6.74-25.15,6.85-37.85.12-14.11-1.58-28.15-3.24-42.13-3.47-29.21-6.94-58.41-10.41-87.62-.83-6.98-1.66-13.97-2.49-20.95l-1.84,2.41c17.32-2.52,34.64-5.03,51.96-7.55,7.1-1.03,14.9-1.67,20.92-5.99,5.52-3.95,8.53-10.1,10.48-16.44,4.02-13.08,6.98-29.72-1.1-41.87-7.17-10.77-20.38-14.94-32.58-16.64-16.39-2.28-33.11-1.85-49.43.77-3.66.59-7.05.99-8.68-2.98-1.47-3.57-2.38-7.49-3.3-11.23-2.01-8.17-3.27-16.51-3.76-24.92-.25-4.23-.3-8.48-.16-12.72.12-3.75,0-7.98,1.04-11.61,1.1-3.87,4.96-4.28,8.43-4.72,4.44-.56,8.89-1.09,13.33-1.59,17.47-2,34.98-3.66,52.52-4.97s34.2-2.07,51.31-2.92c15.98-.8,32.04-1.97,47.68-5.51,26.43-5.98,52.41-20.35,65.34-45.15,6.02-11.55,9.45-26.47,5.24-39.18s-16.11-18.92-28.37-21.41c-15.32-3.1-31.59-2.06-47.05-.79-17.44,1.43-34.82,3.62-52.21,5.54-35.21,3.89-70.41,7.79-105.61,11.71-17.52,1.95-35.04,3.91-52.56,5.88-8.76.98-17.52,1.97-26.28,2.96-6.92.78-13.96,1.39-20.67,3.36-6.05,1.77-11.75,4.73-15.89,9.57-2.08,2.43,1.44,5.98,3.54,3.54,9.1-10.62,25.5-10.61,38.29-12.05,17.04-1.92,34.08-3.83,51.13-5.74,34.25-3.83,68.49-7.63,102.74-11.42,17.05-1.89,34.09-3.77,51.14-5.65,16.92-1.87,33.89-3.84,50.95-3.76,12.62.06,26.99.61,37.64,8.28,11.5,8.28,11.48,23.99,7.84,36.38-7.51,25.56-31.56,42.79-56,50.33-15.01,4.63-30.68,6.47-46.3,7.52-16.47,1.1-32.97,1.58-49.44,2.66-17.07,1.12-34.12,2.56-51.13,4.33-8.59.89-17.16,1.87-25.73,2.93-6.67.82-13.44,1.93-14.92,9.65s-1.25,15.63-.88,23.22c.39,8.09,1.46,16.16,3.19,24.07.87,4,1.92,7.95,3.14,11.86.92,2.94,1.89,6.1,4.41,8.08s5.97,2.09,9.15,1.65c4.05-.56,8.08-1.23,12.15-1.63,15.02-1.46,31.15-1.53,45.87,2.25,5.96,1.53,11.96,3.9,16.59,8.06,5.06,4.54,7.75,10.78,8.25,17.51.54,7.24-.84,14.5-2.64,21.48-1.62,6.31-3.9,13.35-9.5,17.27-6.01,4.2-14.27,4.51-21.3,5.53-8.34,1.21-16.69,2.42-25.03,3.64s-16.69,2.42-25.03,3.64c-.97.14-1.95,1.43-1.84,2.41,3.32,27.94,6.64,55.87,9.96,83.81,1.65,13.86,3.46,27.71,4.84,41.6s2.04,26.86.44,40.21c-1.35,11.31-4.4,23.72-13.42,31.44s-20.95,8.85-31.9,9.73c-13.86,1.12-27.79,1.44-41.68.97-11.34-.39-24.12-.31-34.47-5.63-9.75-5.01-14.44-14.65-16.53-25.01-2.34-11.66-2.11-23.86-2.6-35.69-1.16-28.08-2.31-56.15-3.47-84.23-2.31-56.15-4.62-112.3-6.93-168.45-.56-13.56-1.27-27.12-1.56-40.68-.29-13.16-.04-26.44,2.34-39.42,2.12-11.52,5.54-24.56,13.9-33.24,7.98-8.29,19.49-9.97,30.49-9.41,5.58.28,11.12,1.1,16.63,2.01,3.15.52,4.5-4.3,1.33-4.82h0Z"/>
  </g>
  <g>
    <path class="cls-1" d="m280.16,208.74c1.37,20.6-3.75,43.04,6.87,60.74,1.86,3.11,4.22,5.99,7.24,7.99,4.62,3.06,10.37,3.79,15.89,4.18,10.33.73,20.69.53,31.04.34,1.39-.03,2.86-.08,4.02-.83,1.71-1.1,2.22-3.32,2.59-5.32,3.11-16.77,6.22-33.54,9.34-50.32,1.08-5.84,2.09-12.22-.77-17.43-4.37-7.97-15.2-9.12-24.28-8.89-17.46.44-34.88,2.38-52,5.79"/>
    <path class="cls-1" d="m277.66,208.74c1.14,17.7-2.64,36.33,3.28,53.47,2.96,8.58,8.21,16.69,17.1,19.85,4.34,1.55,9.04,1.91,13.61,2.19,5.25.33,10.51.43,15.76.42,2.63,0,5.26-.03,7.89-.08s5.1.08,7.6-.19,4.63-1.29,5.91-3.51c1.11-1.93,1.4-4.2,1.8-6.35,1.93-10.42,3.87-20.84,5.8-31.26.98-5.29,1.96-10.58,2.95-15.88.85-4.59,1.81-9.31,1.23-13.99-.52-4.2-2.31-8.18-5.58-10.96-2.9-2.46-6.44-3.95-10.13-4.75s-7.59-1.06-11.4-1.03c-5.02.04-10.05.32-15.05.68-10.48.73-20.92,2.01-31.27,3.8-2.57.44-5.14.92-7.7,1.43-1.33.26-2.09,1.84-1.75,3.08.38,1.38,1.75,2.01,3.08,1.75,9.63-1.91,19.34-3.37,29.11-4.33,4.95-.49,9.92-.85,14.89-1.1,4.16-.2,8.35-.43,12.51-.22,5.98.3,13.36,1.58,16.7,7.17,2.09,3.5,1.99,7.78,1.48,11.7-.61,4.7-1.66,9.36-2.52,14.01-1.83,9.85-3.66,19.7-5.48,29.55-.45,2.44-.91,4.88-1.36,7.33-.39,2.09-.53,4.53-1.41,6.49-.73,1.63-2.42,1.47-3.97,1.5-2.46.05-4.93.09-7.39.13-4.93.07-9.86.08-14.79-.06-4.56-.13-9.22-.23-13.73-.97-3.97-.65-7.93-1.87-10.98-4.61s-5.08-6.16-6.74-9.76c-3.37-7.35-4.26-15.61-4.45-23.61-.21-8.54.38-17.07.26-25.61-.03-2.09-.1-4.18-.24-6.27-.09-1.35-1.09-2.5-2.5-2.5-1.29,0-2.59,1.15-2.5,2.5h0Z"/>
  </g>
  <g>
    <path class="cls-1" d="m286.98,305.45c-8.33,15.79-11.18,34.4-7.94,51.96.94,5.08,3.61,11.12,8.77,11.27,1.76.05,3.44-.65,5.05-1.37,5.02-2.27,9.87-4.9,14.5-7.88,5.93,8.88,4.31,21.05-.65,30.51s-12.74,17.06-19.47,25.36c-6.72,8.3-12.65,18.06-12.71,28.74,0,1.42.14,2.96,1.11,4,.72.78,1.78,1.14,2.8,1.44,18.73,5.55,40.13.97,54.96-11.75,15.44-13.25,22.87-33.32,29.7-52.49,4.15-11.65,8.33-23.43,9.74-35.72s-.18-25.32-6.86-35.73c-1.96-3.06-4.43-5.93-7.7-7.5-3.52-1.69-7.57-1.71-11.47-1.69-19.32.07-38.63.13-57.95.2"/>
    <path class="cls-1" d="m284.82,304.19c-6.08,11.59-9.38,24.54-9.58,37.63-.05,3.19.09,6.39.42,9.56s.68,6.17,1.53,9.12c1.42,4.94,4.61,10.29,10.29,10.66,3.79.25,7.61-2.08,10.89-3.73,3.51-1.77,6.93-3.73,10.24-5.84l-3.42-.9c6.53,9.98,2.91,22.77-3.03,32.09-6.81,10.69-16.63,19.08-23.28,29.91-3.31,5.39-5.79,11.3-6.59,17.6-.38,3-.75,6.74,1.34,9.23,1.92,2.3,5.53,2.84,8.31,3.44,11.43,2.45,23.58,1.53,34.54-2.53,11.27-4.17,20.76-11.45,28.08-20.94,7.27-9.43,12.22-20.36,16.49-31.42,2.24-5.8,4.32-11.67,6.37-17.54,2.31-6.59,4.49-13.24,6.04-20.05,2.89-12.66,3.63-26.31-.84-38.71-2.04-5.66-5.1-11.68-9.87-15.53-5.47-4.42-12.28-4.15-18.94-4.13-14.65.05-29.31.1-43.96.15-3.66.01-7.33.02-10.99.04-3.22.01-3.22,5.01,0,5,14.24-.05,28.47-.1,42.71-.15,3.58-.01,7.16-.02,10.74-.04,3.23-.01,6.5-.15,9.73.13,2.71.24,5.35,1.04,7.49,2.78,2.27,1.85,3.95,4.31,5.38,6.83,5.87,10.3,6.85,22.81,5.21,34.36-1.85,13.06-6.6,25.57-11.07,37.92-7.51,20.75-16.98,42.86-37.56,53.63-9.71,5.08-20.86,7.25-31.77,6.33-2.69-.23-5.36-.67-7.99-1.31-1.17-.29-2.44-.53-3.55-1-1.19-.5-1.16-1.59-1.16-2.75,0-5.87,2.06-11.55,4.88-16.63,5.97-10.73,15.28-18.99,22.39-28.9,6.7-9.34,11.38-21.16,8.51-32.75-.66-2.69-1.79-5.28-3.31-7.6-.72-1.1-2.23-1.66-3.42-.9-2.72,1.74-5.5,3.37-8.35,4.87-2.68,1.41-5.5,3.06-8.44,3.85-1.97.54-3.47-.15-4.73-1.6s-2.07-3.49-2.6-5.38c-1.5-5.35-1.79-11.22-1.73-16.75s.74-11.43,2.04-17.02c1.5-6.44,3.79-12.66,6.86-18.52,1.49-2.85-2.82-5.38-4.32-2.52h0Z"/>
  </g>
</svg>